<?xml version="1.0" encoding="UTF-8"?>
<svg width="722px" height="743px" viewBox="0 0 722 743" version="1.1" xmlns="http://www.w3.org/2000/svg" xmlns:xlink="http://www.w3.org/1999/xlink">
    <!-- Generator: Sketch 52.6 (67491) - http://www.bohemiancoding.com/sketch -->
    <title>Combined Shape</title>
    <desc>Created with Sketch.</desc>
    <g id="Page-1" stroke="none" stroke-width="1" fill="none" fill-rule="evenodd">
        <path d="M361,743 C161.625205,743 0,576.673785 0,371.5 C0,166.326215 161.625205,0 361,0 C560.374795,0 722,166.326215 722,371.5 C722,576.673785 560.374795,743 361,743 Z M572,177 L150,177 C143.073,177 136.588,178.703 130.721,181.51 L360,410.789 L411.389,361.402 C411.389,361.402 411.393,361.397 411.394,361.395 C411.395,361.393 411.399,361.391 411.399,361.391 L591.286,181.514 C585.418,178.705 578.929,177 572,177 Z M612.496,202.728 L443.213,372.002 L612.49,541.279 C615.297,535.412 617,528.927 617,522 L617,222 C617,215.077 615.301,208.593 612.496,202.728 Z M109.51,202.721 C106.703,208.588 105,215.073 105,222 L105,522 C105,528.923 106.701,535.409 109.506,541.274 L278.789,372 L109.51,202.721 Z M422.002,393.213 L370.606,442.606 C367.676,445.536 363.838,447.001 360.001,447.001 C356.164,447.001 352.325,445.536 349.396,442.606 L300,393.211 L130.714,562.486 C136.582,565.295 143.071,567 150,567 L572,567 C578.927,567 585.412,565.297 591.279,562.49 L422.002,393.213 Z" id="Combined-Shape" fill="#2f2f31"></path>
    </g>
</svg>