<?xml version="1.0" encoding="UTF-8"?>
<svg width="512px" height="512px" viewBox="0 0 512 512" version="1.1" xmlns="http://www.w3.org/2000/svg" xmlns:xlink="http://www.w3.org/1999/xlink">
    <!-- Generator: Sketch 52.6 (67491) - http://www.bohemiancoding.com/sketch -->
    <title>github</title>
    <desc>Created with Sketch.</desc>
    <g id="Page-1" stroke="none" stroke-width="1" fill="none" fill-rule="evenodd">
        <g id="github" fill="#2f2f31">
            <path d="M256,0 C115.390625,0 0,115.390625 0,256 C0,375.988281 84.195312,484.984375 196,512 L196,427.304688 C184.921875,429.730469 174.726562,429.800781 163.449219,426.476562 C148.320312,422.011719 136.027344,411.933594 126.902344,396.566406 C121.085938,386.753906 110.777344,376.113281 100.023438,376.894531 L97.386719,347.011719 C120.640625,345.019531 140.757812,361.179688 152.699219,381.242188 C158.003906,390.164062 164.109375,395.394531 171.945312,397.707031 C179.519531,399.9375 187.652344,398.867188 197.128906,395.519531 C199.507812,376.546875 208.199219,369.445312 214.765625,359.445312 L214.765625,359.429688 C148.085938,349.484375 121.511719,314.109375 110.964844,286.1875 C96.988281,249.113281 104.488281,202.796875 129.203125,173.527344 C129.683594,172.957031 130.550781,171.464844 130.214844,170.421875 C118.882812,136.191406 132.691406,107.875 133.199219,104.871094 C146.277344,108.738281 148.402344,100.980469 190.007812,126.257812 L197.199219,130.578125 C200.207031,132.371094 199.261719,131.347656 202.269531,131.121094 C219.640625,126.402344 237.953125,123.796875 255.996094,123.5625 C274.175781,123.796875 292.371094,126.402344 310.460938,131.3125 L312.789062,131.546875 C312.585938,131.515625 313.421875,131.398438 314.824219,130.5625 C366.796875,99.082031 364.929688,109.371094 378.867188,104.839844 C379.371094,107.847656 392.996094,136.625 381.785156,170.421875 C380.273438,175.078125 426.84375,217.722656 401.03125,286.175781 C390.484375,314.109375 363.914062,349.484375 297.234375,359.429688 L297.234375,359.445312 C305.78125,372.472656 316.050781,379.402344 315.996094,406.277344 L315.996094,512 C427.804688,484.984375 511.996094,375.988281 511.996094,256 C512,115.390625 396.609375,1.13686838e-13 256,0 Z" id="Path"></path>
        </g>
    </g>
</svg>