<?xml version="1.0" encoding="UTF-8"?>
<svg width="722px" height="743px" viewBox="0 0 722 743" version="1.1" xmlns="http://www.w3.org/2000/svg" xmlns:xlink="http://www.w3.org/1999/xlink">
    <!-- Generator: Sketch 52.6 (67491) - http://www.bohemiancoding.com/sketch -->
    <title>Combined Shape</title>
    <desc>Created with Sketch.</desc>
    <g id="Page-1" stroke="none" stroke-width="1" fill="none" fill-rule="evenodd">
        <path d="M361,743 C161.625205,743 0,576.673785 0,371.5 C0,166.326215 161.625205,0 361,0 C560.374795,0 722,166.326215 722,371.5 C722,576.673785 560.374795,743 361,743 Z M243.870295,293 L155.129705,293 C151.191256,293 148,296.178337 148,300.097672 L148,583.902328 C148,587.823082 151.191256,591 155.129705,591 L243.870295,591 C247.808744,591 251,587.823082 251,583.902328 L251,300.097672 C251,296.178337 247.808744,293 243.870295,293 Z M199.523514,151 C167.253353,151 141,177.237634 141,209.487881 C141,241.752385 167.253353,268 199.523514,268 C231.768024,268 258,241.75096 258,209.487881 C258.001425,177.237634 231.768024,151 199.523514,151 Z M468.822258,286 C433.259469,286 406.970465,301.300142 391.025188,318.68492 L391.025188,300.195172 C391.025188,296.263697 387.840971,293.075515 383.911208,293.075515 L299.113981,293.075515 C295.184218,293.075515 292,296.263697 292,300.195172 L292,584.878919 C292,588.811818 295.184218,591.998576 299.113981,591.998576 L387.465352,591.998576 C391.395115,591.998576 394.579333,588.811818 394.579333,584.878919 L394.579333,444.026478 C394.579333,396.562574 407.461329,378.071401 440.52142,378.071401 C476.5267,378.071401 479.387943,407.714804 479.387943,446.46852 L479.387943,584.880343 C479.387943,588.813242 482.57216,592 486.501923,592 L574.886019,592 C578.815782,592 582,588.813242 582,584.880343 L582,428.726335 C582,358.149178 568.553154,286 468.822258,286 Z" id="Combined-Shape" fill="#2f2f31"></path>
    </g>
</svg>