<?xml version="1.0" encoding="UTF-8"?>
<svg width="512px" height="512px" viewBox="0 0 512 512" version="1.1" xmlns="http://www.w3.org/2000/svg" xmlns:xlink="http://www.w3.org/1999/xlink">
    <!-- Generator: Sketch 52.6 (67491) - http://www.bohemiancoding.com/sketch -->
    <title>rss</title>
    <desc>Created with Sketch.</desc>
    <g id="Page-1" stroke="none" stroke-width="1" fill="none" fill-rule="evenodd">
        <g id="rss" fill="#2f2f31" fill-rule="nonzero">
            <path d="M437.019531,74.980469 C388.667969,26.628906 324.378906,0 256,0 C187.621094,0 123.332031,26.628906 74.980469,74.980469 C26.628906,123.332031 -2.84217094e-14,187.621094 -2.84217094e-14,256 C-2.84217094e-14,324.378906 26.628906,388.667969 74.980469,437.019531 C123.332031,485.371094 187.621094,512 256,512 C324.378906,512 388.667969,485.371094 437.019531,437.019531 C485.371094,388.667969 512,324.378906 512,256 C512,187.621094 485.371094,123.332031 437.019531,74.980469 Z M169.261719,367.9375 C155.53125,367.9375 144.355469,356.765625 144.355469,343.03125 C144.355469,329.296875 155.53125,318.125 169.261719,318.125 C182.996094,318.125 194.167969,329.296875 194.167969,343.03125 C194.167969,356.765625 182.996094,367.9375 169.261719,367.9375 Z M249.539062,372.863281 C241.257812,372.863281 234.539062,366.148438 234.539062,357.863281 C234.539062,313.691406 198.601562,277.753906 154.429688,277.753906 C146.144531,277.753906 139.429688,271.035156 139.429688,262.753906 C139.429688,254.46875 146.144531,247.753906 154.429688,247.753906 C215.144531,247.753906 264.539062,297.148438 264.539062,357.863281 C264.539062,366.148438 257.824219,372.863281 249.539062,372.863281 Z M316.632812,372.863281 C308.347656,372.863281 301.632812,366.148438 301.632812,357.863281 C301.632812,276.695312 235.597656,210.660156 154.429688,210.660156 C146.144531,210.660156 139.429688,203.945312 139.429688,195.660156 C139.429688,187.375 146.144531,180.660156 154.429688,180.660156 C252.140625,180.660156 331.632812,260.152344 331.632812,357.863281 C331.632812,366.148438 324.917969,372.863281 316.632812,372.863281 Z M382.925781,372.863281 C374.644531,372.863281 367.925781,366.148438 367.925781,357.863281 C367.925781,240.140625 272.152344,144.367188 154.429688,144.367188 C146.144531,144.367188 139.429688,137.652344 139.429688,129.367188 C139.429688,121.082031 146.144531,114.367188 154.429688,114.367188 C219.46875,114.367188 280.617188,139.695312 326.609375,185.683594 C372.597656,231.675781 397.925781,292.824219 397.925781,357.863281 C397.925781,366.148438 391.210938,372.863281 382.925781,372.863281 Z" id="Shape"></path>
        </g>
    </g>
</svg>