<?xml version="1.0" encoding="UTF-8"?>
<svg width="722px" height="743px" viewBox="0 0 722 743" version="1.1" xmlns="http://www.w3.org/2000/svg" xmlns:xlink="http://www.w3.org/1999/xlink">
    <!-- Generator: Sketch 52.6 (67491) - http://www.bohemiancoding.com/sketch -->
    <title>Combined Shape</title>
    <desc>Created with Sketch.</desc>
    <g id="Page-1" stroke="none" stroke-width="1" fill="none" fill-rule="evenodd">
        <path d="M361,743 C161.625205,743 0,576.673785 0,371.5 C0,166.326215 161.625205,0 361,0 C560.374795,0 722,166.326215 722,371.5 C722,576.673785 560.374795,743 361,743 Z M608.402,344.885 L378.684,135.567 C368.601,126.378 353.396,126.379 343.317,135.566 L113.598,344.886 C105.521,352.246 102.853,363.586 106.799,373.775 C110.746,383.964 120.356,390.547 131.283,390.547 L167.973,390.547 L167.973,600.268 C167.973,608.583 174.715,615.325 183.03,615.325 L308.944,615.325 C317.259,615.325 324.001,608.584 324.001,600.268 L324.001,472.932 L398.003,472.932 L398.003,600.269 C398.003,608.584 404.745,615.326 413.06,615.326 L538.968,615.326 C547.283,615.326 554.025,608.585 554.025,600.269 L554.025,390.547 L590.722,390.547 C601.648,390.547 611.259,383.963 615.206,373.775 C619.147,363.585 616.479,352.246 608.402,344.885 Z M550.092,158.73 L448.973,158.73 L565.149,264.366 L565.149,173.786 C565.149,165.471 558.408,158.73 550.092,158.73 Z" fill="#2f2f31" id="Combined-Shape"></path>
    </g>
</svg>